<?xml version="1.0" encoding="UTF-8" standalone="no"?>
<!DOCTYPE svg PUBLIC "-//W3C//DTD SVG 1.1//EN"
 "http://www.w3.org/Graphics/SVG/1.1/DTD/svg11.dtd">
<!-- Generated by graphviz version 2.40.1 (20161225.0304)
 -->
<!-- Title: G Pages: 1 -->
<svg width="758pt" height="120pt"
 viewBox="0.00 0.00 758.00 120.00" xmlns="http://www.w3.org/2000/svg" xmlns:xlink="http://www.w3.org/1999/xlink">
<g id="graph0" class="graph" transform="scale(1 1) rotate(0) translate(4 116)">
<title>G</title>
<polygon fill="#ffffff" stroke="transparent" points="-4,4 -4,-116 754,-116 754,4 -4,4"/>
<!-- 140464611520416 -->
<g id="node1" class="node">
<title>140464611520416</title>
<polygon fill="none" stroke="#000000" points="0,-65.5 0,-111.5 98,-111.5 98,-65.5 0,-65.5"/>
<text text-anchor="middle" x="49" y="-96.3" font-family="Times,serif" font-size="14.00" fill="#000000">Feature Matrix</text>
<polyline fill="none" stroke="#000000" points="0,-88.5 98,-88.5 "/>
<text text-anchor="middle" x="49" y="-73.3" font-family="Times,serif" font-size="14.00" fill="#000000">InputLayer</text>
</g>
<!-- 140462748817536 -->
<g id="node3" class="node">
<title>140462748817536</title>
<polygon fill="none" stroke="#000000" points="134,-52.5 134,-98.5 223,-98.5 223,-52.5 134,-52.5"/>
<text text-anchor="middle" x="178.5" y="-83.3" font-family="Times,serif" font-size="14.00" fill="#000000">gcn_25x256</text>
<polyline fill="none" stroke="#000000" points="134,-75.5 223,-75.5 "/>
<text text-anchor="middle" x="178.5" y="-60.3" font-family="Times,serif" font-size="14.00" fill="#000000">GeneralConv</text>
</g>
<!-- 140464611520416&#45;&gt;140462748817536 -->
<g id="edge1" class="edge">
<title>140464611520416&#45;&gt;140462748817536</title>
<path fill="none" stroke="#000000" d="M98.3278,-83.5482C106.6617,-82.7116 115.3575,-81.8386 123.8181,-80.9893"/>
<polygon fill="#000000" stroke="#000000" points="124.3812,-84.4505 133.9816,-79.969 123.682,-77.4855 124.3812,-84.4505"/>
</g>
<!-- 140462748815808 -->
<g id="node2" class="node">
<title>140462748815808</title>
<polygon fill="none" stroke="#000000" points="8,-.5 8,-46.5 90,-46.5 90,-.5 8,-.5"/>
<text text-anchor="middle" x="49" y="-31.3" font-family="Times,serif" font-size="14.00" fill="#000000">Adj. Matrix</text>
<polyline fill="none" stroke="#000000" points="8,-23.5 90,-23.5 "/>
<text text-anchor="middle" x="49" y="-8.3" font-family="Times,serif" font-size="14.00" fill="#000000">InputLayer</text>
</g>
<!-- 140462748815808&#45;&gt;140462748817536 -->
<g id="edge2" class="edge">
<title>140462748815808&#45;&gt;140462748817536</title>
<path fill="none" stroke="#000000" d="M90.3307,-40.0961C101.2026,-44.4617 113.0926,-49.236 124.5218,-53.8254"/>
<polygon fill="#000000" stroke="#000000" points="123.3976,-57.1455 133.9816,-57.6239 126.006,-50.6496 123.3976,-57.1455"/>
</g>
<!-- 140462748144112 -->
<g id="node4" class="node">
<title>140462748144112</title>
<polygon fill="none" stroke="#000000" points="259,-52.5 259,-98.5 421,-98.5 421,-52.5 259,-52.5"/>
<text text-anchor="middle" x="340" y="-83.3" font-family="Times,serif" font-size="14.00" fill="#000000">feature_embedding_25x64</text>
<polyline fill="none" stroke="#000000" points="259,-75.5 421,-75.5 "/>
<text text-anchor="middle" x="340" y="-60.3" font-family="Times,serif" font-size="14.00" fill="#000000">GeneralConv</text>
</g>
<!-- 140462748815808&#45;&gt;140462748144112 -->
<g id="edge4" class="edge">
<title>140462748815808&#45;&gt;140462748144112</title>
<path fill="none" stroke="#000000" d="M178.5,-23.5C213.0755,-26.2654 250.0136,-37.4891 279.8252,-48.8047"/>
<polygon fill="#000000" stroke="#000000" points="278.6534,-52.1043 289.2418,-52.4712 281.1932,-45.5813 278.6534,-52.1043"/>
</g>
<!-- 140462748145456 -->
<g id="node5" class="node">
<title>140462748145456</title>
<polygon fill="none" stroke="#000000" points="457,-26.5 457,-72.5 542,-72.5 542,-26.5 457,-26.5"/>
<text text-anchor="middle" x="499.5" y="-57.3" font-family="Times,serif" font-size="14.00" fill="#000000">pooling_1x6</text>
<polyline fill="none" stroke="#000000" points="457,-49.5 542,-49.5 "/>
<text text-anchor="middle" x="499.5" y="-34.3" font-family="Times,serif" font-size="14.00" fill="#000000">DiffPool</text>
</g>
<!-- 140462748815808&#45;&gt;140462748145456 -->
<g id="edge6" class="edge">
<title>140462748815808&#45;&gt;140462748145456</title>
<path fill="none" stroke="#000000" d="M90.1842,-21.8276C115.6656,-21.2074 149.0294,-21.1429 178.5,-23.5"/>
<path fill="none" stroke="#000000" d="M178.5,-23.5C273.0024,-31.0583 383.1416,-40.0105 446.7453,-45.1942"/>
<polygon fill="#000000" stroke="#000000" points="446.673,-48.6998 456.9244,-46.024 447.2418,-41.723 446.673,-48.6998"/>
</g>
<!-- 140462748817536&#45;&gt;140462748144112 -->
<g id="edge3" class="edge">
<title>140462748817536&#45;&gt;140462748144112</title>
<path fill="none" stroke="#000000" d="M223.0581,-75.5C231.1306,-75.5 239.8114,-75.5 248.6651,-75.5"/>
<polygon fill="#000000" stroke="#000000" points="248.7113,-79.0001 258.7112,-75.5 248.7112,-72.0001 248.7113,-79.0001"/>
</g>
<!-- 140462748144112&#45;&gt;140462748145456 -->
<g id="edge5" class="edge">
<title>140462748144112&#45;&gt;140462748145456</title>
<path fill="none" stroke="#000000" d="M421.1518,-62.2715C429.8095,-60.8602 438.4452,-59.4525 446.6506,-58.115"/>
<polygon fill="#000000" stroke="#000000" points="447.4765,-61.5266 456.7831,-56.4633 446.3503,-54.6178 447.4765,-61.5266"/>
</g>
<!-- 140462748143728 -->
<g id="node6" class="node">
<title>140462748143728</title>
<polygon fill="none" stroke="#000000" points="578,-26.5 578,-72.5 640,-72.5 640,-26.5 578,-26.5"/>
<text text-anchor="middle" x="609" y="-57.3" font-family="Times,serif" font-size="14.00" fill="#000000">reshape</text>
<polyline fill="none" stroke="#000000" points="578,-49.5 640,-49.5 "/>
<text text-anchor="middle" x="609" y="-34.3" font-family="Times,serif" font-size="14.00" fill="#000000">Reshape</text>
</g>
<!-- 140462748145456&#45;&gt;140462748143728 -->
<g id="edge7" class="edge">
<title>140462748145456&#45;&gt;140462748143728</title>
<path fill="none" stroke="#000000" d="M542.1491,-49.5C550.5092,-49.5 559.2656,-49.5 567.5846,-49.5"/>
<polygon fill="#000000" stroke="#000000" points="567.8255,-53.0001 577.8254,-49.5 567.8254,-46.0001 567.8255,-53.0001"/>
</g>
<!-- 140462746190176 -->
<g id="node7" class="node">
<title>140462746190176</title>
<polygon fill="none" stroke="#000000" points="676,-26.5 676,-72.5 750,-72.5 750,-26.5 676,-26.5"/>
<text text-anchor="middle" x="713" y="-57.3" font-family="Times,serif" font-size="14.00" fill="#000000">dense_1x6</text>
<polyline fill="none" stroke="#000000" points="676,-49.5 750,-49.5 "/>
<text text-anchor="middle" x="713" y="-34.3" font-family="Times,serif" font-size="14.00" fill="#000000">Dense</text>
</g>
<!-- 140462748143728&#45;&gt;140462746190176 -->
<g id="edge8" class="edge">
<title>140462748143728&#45;&gt;140462746190176</title>
<path fill="none" stroke="#000000" d="M640.2034,-49.5C648.2882,-49.5 657.176,-49.5 665.8798,-49.5"/>
<polygon fill="#000000" stroke="#000000" points="665.9537,-53.0001 675.9536,-49.5 665.9536,-46.0001 665.9537,-53.0001"/>
</g>
</g>
</svg>
