<?xml version="1.0" encoding="UTF-8" standalone="no"?>
<!DOCTYPE svg PUBLIC "-//W3C//DTD SVG 1.1//EN"
 "http://www.w3.org/Graphics/SVG/1.1/DTD/svg11.dtd">
<!-- Generated by graphviz version 2.40.1 (20161225.0304)
 -->
<!-- Title: G Pages: 1 -->
<svg width="694pt" height="120pt"
 viewBox="0.00 0.00 694.00 120.00" xmlns="http://www.w3.org/2000/svg" xmlns:xlink="http://www.w3.org/1999/xlink">
<g id="graph0" class="graph" transform="scale(1 1) rotate(0) translate(4 116)">
<title>G</title>
<polygon fill="#ffffff" stroke="transparent" points="-4,4 -4,-116 690,-116 690,4 -4,4"/>
<!-- 140420424179616 -->
<g id="node1" class="node">
<title>140420424179616</title>
<polygon fill="none" stroke="#000000" points="0,-65.5 0,-111.5 98,-111.5 98,-65.5 0,-65.5"/>
<text text-anchor="middle" x="49" y="-96.3" font-family="Times,serif" font-size="14.00" fill="#000000">Feature Matrix</text>
<polyline fill="none" stroke="#000000" points="0,-88.5 98,-88.5 "/>
<text text-anchor="middle" x="49" y="-73.3" font-family="Times,serif" font-size="14.00" fill="#000000">InputLayer</text>
</g>
<!-- 140418528065520 -->
<g id="node3" class="node">
<title>140418528065520</title>
<polygon fill="none" stroke="#000000" points="134,-52.5 134,-98.5 223,-98.5 223,-52.5 134,-52.5"/>
<text text-anchor="middle" x="178.5" y="-83.3" font-family="Times,serif" font-size="14.00" fill="#000000">general_conv</text>
<polyline fill="none" stroke="#000000" points="134,-75.5 223,-75.5 "/>
<text text-anchor="middle" x="178.5" y="-60.3" font-family="Times,serif" font-size="14.00" fill="#000000">GeneralConv</text>
</g>
<!-- 140420424179616&#45;&gt;140418528065520 -->
<g id="edge1" class="edge">
<title>140420424179616&#45;&gt;140418528065520</title>
<path fill="none" stroke="#000000" d="M98.3278,-83.5482C106.6617,-82.7116 115.3575,-81.8386 123.8181,-80.9893"/>
<polygon fill="#000000" stroke="#000000" points="124.3812,-84.4505 133.9816,-79.969 123.682,-77.4855 124.3812,-84.4505"/>
</g>
<!-- 140418528064704 -->
<g id="node2" class="node">
<title>140418528064704</title>
<polygon fill="none" stroke="#000000" points="8,-.5 8,-46.5 90,-46.5 90,-.5 8,-.5"/>
<text text-anchor="middle" x="49" y="-31.3" font-family="Times,serif" font-size="14.00" fill="#000000">Adj. Matrix</text>
<polyline fill="none" stroke="#000000" points="8,-23.5 90,-23.5 "/>
<text text-anchor="middle" x="49" y="-8.3" font-family="Times,serif" font-size="14.00" fill="#000000">InputLayer</text>
</g>
<!-- 140418528064704&#45;&gt;140418528065520 -->
<g id="edge2" class="edge">
<title>140418528064704&#45;&gt;140418528065520</title>
<path fill="none" stroke="#000000" d="M90.3307,-40.0961C101.2026,-44.4617 113.0926,-49.236 124.5218,-53.8254"/>
<polygon fill="#000000" stroke="#000000" points="123.3976,-57.1455 133.9816,-57.6239 126.006,-50.6496 123.3976,-57.1455"/>
</g>
<!-- 140418527228256 -->
<g id="node4" class="node">
<title>140418527228256</title>
<polygon fill="none" stroke="#000000" points="259,-52.5 259,-98.5 381,-98.5 381,-52.5 259,-52.5"/>
<text text-anchor="middle" x="320" y="-83.3" font-family="Times,serif" font-size="14.00" fill="#000000">feature_embedding</text>
<polyline fill="none" stroke="#000000" points="259,-75.5 381,-75.5 "/>
<text text-anchor="middle" x="320" y="-60.3" font-family="Times,serif" font-size="14.00" fill="#000000">GeneralConv</text>
</g>
<!-- 140418528064704&#45;&gt;140418527228256 -->
<g id="edge4" class="edge">
<title>140418528064704&#45;&gt;140418527228256</title>
<path fill="none" stroke="#000000" d="M178.5,-23.5C208.7937,-26.2601 240.7468,-37.2324 266.6082,-48.3913"/>
<polygon fill="#000000" stroke="#000000" points="265.2865,-51.6339 275.8462,-52.496 268.1289,-45.2369 265.2865,-51.6339"/>
</g>
<!-- 140418527229600 -->
<g id="node5" class="node">
<title>140418527229600</title>
<polygon fill="none" stroke="#000000" points="417,-26.5 417,-72.5 481,-72.5 481,-26.5 417,-26.5"/>
<text text-anchor="middle" x="449" y="-57.3" font-family="Times,serif" font-size="14.00" fill="#000000">pooling</text>
<polyline fill="none" stroke="#000000" points="417,-49.5 481,-49.5 "/>
<text text-anchor="middle" x="449" y="-34.3" font-family="Times,serif" font-size="14.00" fill="#000000">DiffPool</text>
</g>
<!-- 140418528064704&#45;&gt;140418527229600 -->
<g id="edge6" class="edge">
<title>140418528064704&#45;&gt;140418527229600</title>
<path fill="none" stroke="#000000" d="M90.204,-21.5966C115.6926,-20.8908 149.0573,-20.8175 178.5,-23.5"/>
<path fill="none" stroke="#000000" d="M178.5,-23.5C259.3265,-30.8641 353.6751,-40.072 406.8725,-45.3201"/>
<polygon fill="#000000" stroke="#000000" points="406.6515,-48.8152 416.9471,-46.3152 407.3396,-41.8491 406.6515,-48.8152"/>
</g>
<!-- 140418528065520&#45;&gt;140418527228256 -->
<g id="edge3" class="edge">
<title>140418528065520&#45;&gt;140418527228256</title>
<path fill="none" stroke="#000000" d="M223.2715,-75.5C231.4188,-75.5 240.0998,-75.5 248.7901,-75.5"/>
<polygon fill="#000000" stroke="#000000" points="248.9646,-79.0001 258.9646,-75.5 248.9645,-72.0001 248.9646,-79.0001"/>
</g>
<!-- 140418527228256&#45;&gt;140418527229600 -->
<g id="edge5" class="edge">
<title>140418527228256&#45;&gt;140418527229600</title>
<path fill="none" stroke="#000000" d="M381.1,-63.1853C389.8966,-61.4123 398.7777,-59.6223 407.0866,-57.9477"/>
<polygon fill="#000000" stroke="#000000" points="407.7821,-61.3779 416.8935,-55.9711 406.399,-54.5159 407.7821,-61.3779"/>
</g>
<!-- 140418528066384 -->
<g id="node6" class="node">
<title>140418528066384</title>
<polygon fill="none" stroke="#000000" points="517,-26.5 517,-72.5 579,-72.5 579,-26.5 517,-26.5"/>
<text text-anchor="middle" x="548" y="-57.3" font-family="Times,serif" font-size="14.00" fill="#000000">reshape</text>
<polyline fill="none" stroke="#000000" points="517,-49.5 579,-49.5 "/>
<text text-anchor="middle" x="548" y="-34.3" font-family="Times,serif" font-size="14.00" fill="#000000">Reshape</text>
</g>
<!-- 140418527229600&#45;&gt;140418528066384 -->
<g id="edge7" class="edge">
<title>140418527229600&#45;&gt;140418528066384</title>
<path fill="none" stroke="#000000" d="M481.1425,-49.5C489.2506,-49.5 498.0702,-49.5 506.5642,-49.5"/>
<polygon fill="#000000" stroke="#000000" points="506.6939,-53.0001 516.6938,-49.5 506.6938,-46.0001 506.6939,-53.0001"/>
</g>
<!-- 140418526657552 -->
<g id="node7" class="node">
<title>140418526657552</title>
<polygon fill="none" stroke="#000000" points="615,-26.5 615,-72.5 686,-72.5 686,-26.5 615,-26.5"/>
<text text-anchor="middle" x="650.5" y="-57.3" font-family="Times,serif" font-size="14.00" fill="#000000">prediction</text>
<polyline fill="none" stroke="#000000" points="615,-49.5 686,-49.5 "/>
<text text-anchor="middle" x="650.5" y="-34.3" font-family="Times,serif" font-size="14.00" fill="#000000">Dense</text>
</g>
<!-- 140418528066384&#45;&gt;140418526657552 -->
<g id="edge8" class="edge">
<title>140418528066384&#45;&gt;140418526657552</title>
<path fill="none" stroke="#000000" d="M579.0315,-49.5C587.1629,-49.5 596.1029,-49.5 604.8249,-49.5"/>
<polygon fill="#000000" stroke="#000000" points="604.9022,-53.0001 614.9022,-49.5 604.9022,-46.0001 604.9022,-53.0001"/>
</g>
</g>
</svg>
