<?xml version="1.0" encoding="UTF-8" standalone="no"?>
<!DOCTYPE svg PUBLIC "-//W3C//DTD SVG 1.1//EN"
 "http://www.w3.org/Graphics/SVG/1.1/DTD/svg11.dtd">
<!-- Generated by graphviz version 2.40.1 (20161225.0304)
 -->
<!-- Title: G Pages: 1 -->
<svg width="504pt" height="120pt"
 viewBox="0.00 0.00 504.00 120.00" xmlns="http://www.w3.org/2000/svg" xmlns:xlink="http://www.w3.org/1999/xlink">
<g id="graph0" class="graph" transform="scale(1 1) rotate(0) translate(4 116)">
<title>G</title>
<polygon fill="#ffffff" stroke="transparent" points="-4,4 -4,-116 500,-116 500,4 -4,4"/>
<!-- 140418526780288 -->
<g id="node1" class="node">
<title>140418526780288</title>
<polygon fill="none" stroke="#000000" points="0,-65.5 0,-111.5 122,-111.5 122,-65.5 0,-65.5"/>
<text text-anchor="middle" x="61" y="-96.3" font-family="Times,serif" font-size="14.00" fill="#000000">feature_embedding</text>
<polyline fill="none" stroke="#000000" points="0,-88.5 122,-88.5 "/>
<text text-anchor="middle" x="61" y="-73.3" font-family="Times,serif" font-size="14.00" fill="#000000">InputLayer</text>
</g>
<!-- 140418525498240 -->
<g id="node3" class="node">
<title>140418525498240</title>
<polygon fill="none" stroke="#000000" points="158,-52.5 158,-98.5 261,-98.5 261,-52.5 158,-52.5"/>
<text text-anchor="middle" x="209.5" y="-83.3" font-family="Times,serif" font-size="14.00" fill="#000000">general_conv_1</text>
<polyline fill="none" stroke="#000000" points="158,-75.5 261,-75.5 "/>
<text text-anchor="middle" x="209.5" y="-60.3" font-family="Times,serif" font-size="14.00" fill="#000000">GeneralConv</text>
</g>
<!-- 140418526780288&#45;&gt;140418525498240 -->
<g id="edge1" class="edge">
<title>140418526780288&#45;&gt;140418525498240</title>
<path fill="none" stroke="#000000" d="M122.258,-83.1373C130.6644,-82.4014 139.3001,-81.6454 147.7159,-80.9087"/>
<polygon fill="#000000" stroke="#000000" points="148.1854,-84.3811 157.842,-80.0222 147.5748,-77.4078 148.1854,-84.3811"/>
</g>
<!-- 140418733574368 -->
<g id="node2" class="node">
<title>140418733574368</title>
<polygon fill="none" stroke="#000000" points="22.5,-.5 22.5,-46.5 99.5,-46.5 99.5,-.5 22.5,-.5"/>
<text text-anchor="middle" x="61" y="-31.3" font-family="Times,serif" font-size="14.00" fill="#000000">adj_matrix</text>
<polyline fill="none" stroke="#000000" points="22.5,-23.5 99.5,-23.5 "/>
<text text-anchor="middle" x="61" y="-8.3" font-family="Times,serif" font-size="14.00" fill="#000000">InputLayer</text>
</g>
<!-- 140418733574368&#45;&gt;140418525498240 -->
<g id="edge2" class="edge">
<title>140418733574368&#45;&gt;140418525498240</title>
<path fill="none" stroke="#000000" d="M99.629,-37.0266C114.4995,-42.2338 131.8681,-48.3158 148.3479,-54.0865"/>
<polygon fill="#000000" stroke="#000000" points="147.3277,-57.4376 157.9225,-57.4392 149.6412,-50.8309 147.3277,-57.4376"/>
</g>
<!-- 140418525498336 -->
<g id="node4" class="node">
<title>140418525498336</title>
<polygon fill="none" stroke="#000000" points="297,-26.5 297,-72.5 386,-72.5 386,-26.5 297,-26.5"/>
<text text-anchor="middle" x="341.5" y="-57.3" font-family="Times,serif" font-size="14.00" fill="#000000">proxy_input</text>
<polyline fill="none" stroke="#000000" points="297,-49.5 386,-49.5 "/>
<text text-anchor="middle" x="341.5" y="-34.3" font-family="Times,serif" font-size="14.00" fill="#000000">GeneralConv</text>
</g>
<!-- 140418733574368&#45;&gt;140418525498336 -->
<g id="edge4" class="edge">
<title>140418733574368&#45;&gt;140418525498336</title>
<path fill="none" stroke="#000000" d="M99.7078,-27.0879C148.1362,-31.5768 231.3792,-39.2927 286.4329,-44.3957"/>
<polygon fill="#000000" stroke="#000000" points="286.4288,-47.9103 296.7092,-45.3483 287.0749,-40.9402 286.4288,-47.9103"/>
</g>
<!-- 140418525498240&#45;&gt;140418525498336 -->
<g id="edge3" class="edge">
<title>140418525498240&#45;&gt;140418525498336</title>
<path fill="none" stroke="#000000" d="M261.291,-65.2987C269.6096,-63.6602 278.2444,-61.9594 286.6321,-60.3073"/>
<polygon fill="#000000" stroke="#000000" points="287.5679,-63.6903 296.7029,-58.3237 286.215,-56.8223 287.5679,-63.6903"/>
</g>
<!-- 140418672723616 -->
<g id="node5" class="node">
<title>140418672723616</title>
<polygon fill="none" stroke="#000000" points="422,-26.5 422,-72.5 496,-72.5 496,-26.5 422,-26.5"/>
<text text-anchor="middle" x="459" y="-57.3" font-family="Times,serif" font-size="14.00" fill="#000000">Sigmoid</text>
<polyline fill="none" stroke="#000000" points="422,-49.5 496,-49.5 "/>
<text text-anchor="middle" x="459" y="-34.3" font-family="Times,serif" font-size="14.00" fill="#000000">Activation</text>
</g>
<!-- 140418525498336&#45;&gt;140418672723616 -->
<g id="edge5" class="edge">
<title>140418525498336&#45;&gt;140418672723616</title>
<path fill="none" stroke="#000000" d="M386.2569,-49.5C394.5562,-49.5 403.2511,-49.5 411.6254,-49.5"/>
<polygon fill="#000000" stroke="#000000" points="411.6331,-53.0001 421.6331,-49.5 411.633,-46.0001 411.6331,-53.0001"/>
</g>
</g>
</svg>
