<?xml version="1.0" encoding="UTF-8" standalone="no"?>
<!DOCTYPE svg PUBLIC "-//W3C//DTD SVG 1.1//EN"
 "http://www.w3.org/Graphics/SVG/1.1/DTD/svg11.dtd">
<!-- Generated by graphviz version 2.43.0 (0)
 -->
<!-- Title: G Pages: 1 -->
<svg width="816pt" height="120pt"
 viewBox="0.00 0.00 816.00 120.00" xmlns="http://www.w3.org/2000/svg" xmlns:xlink="http://www.w3.org/1999/xlink">
<g id="graph0" class="graph" transform="scale(1 1) rotate(0) translate(4 116)">
<title>G</title>
<polygon fill="white" stroke="transparent" points="-4,4 -4,-116 812,-116 812,4 -4,4"/>
<!-- 140323201077648 -->
<g id="node1" class="node">
<title>140323201077648</title>
<polygon fill="none" stroke="black" points="0,-65.5 0,-111.5 125,-111.5 125,-65.5 0,-65.5"/>
<text text-anchor="middle" x="62.5" y="-96.3" font-family="Times,serif" font-size="14.00">Feature Matrix</text>
<polyline fill="none" stroke="black" points="0,-88.5 125,-88.5 "/>
<text text-anchor="middle" x="62.5" y="-73.3" font-family="Times,serif" font-size="14.00">InputLayer</text>
</g>
<!-- 140322490581344 -->
<g id="node3" class="node">
<title>140322490581344</title>
<polygon fill="none" stroke="black" points="161,-52.5 161,-98.5 271,-98.5 271,-52.5 161,-52.5"/>
<text text-anchor="middle" x="216" y="-83.3" font-family="Times,serif" font-size="14.00">general_conv</text>
<polyline fill="none" stroke="black" points="161,-75.5 271,-75.5 "/>
<text text-anchor="middle" x="216" y="-60.3" font-family="Times,serif" font-size="14.00">GeneralConv</text>
</g>
<!-- 140323201077648&#45;&gt;140322490581344 -->
<g id="edge1" class="edge">
<title>140323201077648&#45;&gt;140322490581344</title>
<path fill="none" stroke="black" d="M125.12,-83.21C133.51,-82.49 142.13,-81.75 150.57,-81.03"/>
<polygon fill="black" stroke="black" points="151.07,-84.5 160.73,-80.16 150.47,-77.52 151.07,-84.5"/>
</g>
<!-- 140322491186672 -->
<g id="node2" class="node">
<title>140322491186672</title>
<polygon fill="none" stroke="black" points="14,-0.5 14,-46.5 111,-46.5 111,-0.5 14,-0.5"/>
<text text-anchor="middle" x="62.5" y="-31.3" font-family="Times,serif" font-size="14.00">Adj. Matrix</text>
<polyline fill="none" stroke="black" points="14,-23.5 111,-23.5 "/>
<text text-anchor="middle" x="62.5" y="-8.3" font-family="Times,serif" font-size="14.00">InputLayer</text>
</g>
<!-- 140322491186672&#45;&gt;140322490581344 -->
<g id="edge2" class="edge">
<title>140322491186672&#45;&gt;140322490581344</title>
<path fill="none" stroke="black" d="M111.02,-39.81C123.73,-44.17 137.67,-48.96 151.11,-53.57"/>
<polygon fill="black" stroke="black" points="150.18,-56.95 160.78,-56.89 152.46,-50.33 150.18,-56.95"/>
</g>
<!-- 140322490583792 -->
<g id="node4" class="node">
<title>140322490583792</title>
<polygon fill="none" stroke="black" points="307,-52.5 307,-98.5 462,-98.5 462,-52.5 307,-52.5"/>
<text text-anchor="middle" x="384.5" y="-83.3" font-family="Times,serif" font-size="14.00">feature_embedding</text>
<polyline fill="none" stroke="black" points="307,-75.5 462,-75.5 "/>
<text text-anchor="middle" x="384.5" y="-60.3" font-family="Times,serif" font-size="14.00">GeneralConv</text>
</g>
<!-- 140322491186672&#45;&gt;140322490583792 -->
<g id="edge4" class="edge">
<title>140322491186672&#45;&gt;140322490583792</title>
<path fill="none" stroke="black" d="M217,-23.5C252.56,-26.23 290.63,-37.45 321.38,-48.77"/>
<polygon fill="black" stroke="black" points="320.51,-52.18 331.1,-52.44 322.98,-45.63 320.51,-52.18"/>
</g>
<!-- 140322489000192 -->
<g id="node5" class="node">
<title>140322489000192</title>
<polygon fill="none" stroke="black" points="498,-26.5 498,-72.5 570,-72.5 570,-26.5 498,-26.5"/>
<text text-anchor="middle" x="534" y="-57.3" font-family="Times,serif" font-size="14.00">pooling</text>
<polyline fill="none" stroke="black" points="498,-49.5 570,-49.5 "/>
<text text-anchor="middle" x="534" y="-34.3" font-family="Times,serif" font-size="14.00">DiffPool</text>
</g>
<!-- 140322491186672&#45;&gt;140322489000192 -->
<g id="edge6" class="edge">
<title>140322491186672&#45;&gt;140322489000192</title>
<path fill="none" stroke="black" d="M111.33,-21.63C141.19,-20.93 180.38,-20.84 215,-23.5"/>
<path fill="none" stroke="black" d="M217,-23.5C313.5,-30.9 426.51,-40.4 487.83,-45.62"/>
<polygon fill="black" stroke="black" points="487.68,-49.12 497.94,-46.49 488.27,-42.15 487.68,-49.12"/>
</g>
<!-- 140322490581344&#45;&gt;140322490583792 -->
<g id="edge3" class="edge">
<title>140322490581344&#45;&gt;140322490583792</title>
<path fill="none" stroke="black" d="M271.06,-75.5C279.25,-75.5 287.87,-75.5 296.54,-75.5"/>
<polygon fill="black" stroke="black" points="296.73,-79 306.73,-75.5 296.73,-72 296.73,-79"/>
</g>
<!-- 140322490583792&#45;&gt;140322489000192 -->
<g id="edge5" class="edge">
<title>140322490583792&#45;&gt;140322489000192</title>
<path fill="none" stroke="black" d="M462.27,-61.97C471.04,-60.42 479.74,-58.89 487.89,-57.45"/>
<polygon fill="black" stroke="black" points="488.64,-60.87 497.88,-55.69 487.43,-53.98 488.64,-60.87"/>
</g>
<!-- 140322490583696 -->
<g id="node6" class="node">
<title>140322490583696</title>
<polygon fill="none" stroke="black" points="606,-26.5 606,-72.5 683,-72.5 683,-26.5 606,-26.5"/>
<text text-anchor="middle" x="644.5" y="-57.3" font-family="Times,serif" font-size="14.00">reshape</text>
<polyline fill="none" stroke="black" points="606,-49.5 683,-49.5 "/>
<text text-anchor="middle" x="644.5" y="-34.3" font-family="Times,serif" font-size="14.00">Reshape</text>
</g>
<!-- 140322489000192&#45;&gt;140322490583696 -->
<g id="edge7" class="edge">
<title>140322489000192&#45;&gt;140322490583696</title>
<path fill="none" stroke="black" d="M570.23,-49.5C578.32,-49.5 587.06,-49.5 595.59,-49.5"/>
<polygon fill="black" stroke="black" points="595.83,-53 605.83,-49.5 595.83,-46 595.83,-53"/>
</g>
<!-- 140322487778752 -->
<g id="node7" class="node">
<title>140322487778752</title>
<polygon fill="none" stroke="black" points="719,-26.5 719,-72.5 808,-72.5 808,-26.5 719,-26.5"/>
<text text-anchor="middle" x="763.5" y="-57.3" font-family="Times,serif" font-size="14.00">prediction</text>
<polyline fill="none" stroke="black" points="719,-49.5 808,-49.5 "/>
<text text-anchor="middle" x="763.5" y="-34.3" font-family="Times,serif" font-size="14.00">Dense</text>
</g>
<!-- 140322490583696&#45;&gt;140322487778752 -->
<g id="edge8" class="edge">
<title>140322490583696&#45;&gt;140322487778752</title>
<path fill="none" stroke="black" d="M683.16,-49.5C691.33,-49.5 700.11,-49.5 708.76,-49.5"/>
<polygon fill="black" stroke="black" points="708.8,-53 718.8,-49.5 708.8,-46 708.8,-53"/>
</g>
</g>
</svg>
