<?xml version="1.0" encoding="UTF-8" standalone="no"?>
<!DOCTYPE svg PUBLIC "-//W3C//DTD SVG 1.1//EN"
 "http://www.w3.org/Graphics/SVG/1.1/DTD/svg11.dtd">
<!-- Generated by graphviz version 2.43.0 (0)
 -->
<!-- Title: G Pages: 1 -->
<svg width="361pt" height="120pt"
 viewBox="0.00 0.00 361.00 120.00" xmlns="http://www.w3.org/2000/svg" xmlns:xlink="http://www.w3.org/1999/xlink">
<g id="graph0" class="graph" transform="scale(1 1) rotate(0) translate(4 116)">
<title>G</title>
<polygon fill="white" stroke="transparent" points="-4,4 -4,-116 357,-116 357,4 -4,4"/>
<!-- 140322488260448 -->
<g id="node1" class="node">
<title>140322488260448</title>
<polygon fill="none" stroke="black" points="1,-65.5 1,-111.5 96,-111.5 96,-65.5 1,-65.5"/>
<text text-anchor="middle" x="48.5" y="-96.3" font-family="Times,serif" font-size="14.00">input_1</text>
<polyline fill="none" stroke="black" points="1,-88.5 96,-88.5 "/>
<text text-anchor="middle" x="48.5" y="-73.3" font-family="Times,serif" font-size="14.00">InputLayer</text>
</g>
<!-- 140322488833360 -->
<g id="node3" class="node">
<title>140322488833360</title>
<polygon fill="none" stroke="black" points="133,-52.5 133,-98.5 225,-98.5 225,-52.5 133,-52.5"/>
<text text-anchor="middle" x="179" y="-83.3" font-family="Times,serif" font-size="14.00">model_3</text>
<polyline fill="none" stroke="black" points="133,-75.5 225,-75.5 "/>
<text text-anchor="middle" x="179" y="-60.3" font-family="Times,serif" font-size="14.00">Functional</text>
</g>
<!-- 140322488260448&#45;&gt;140322488833360 -->
<g id="edge1" class="edge">
<title>140322488260448&#45;&gt;140322488833360</title>
<path fill="none" stroke="black" d="M96.25,-83.77C104.82,-82.9 113.83,-81.99 122.61,-81.1"/>
<polygon fill="black" stroke="black" points="123.18,-84.56 132.78,-80.07 122.48,-77.6 123.18,-84.56"/>
</g>
<!-- 140322838906480 -->
<g id="node2" class="node">
<title>140322838906480</title>
<polygon fill="none" stroke="black" points="0,-0.5 0,-46.5 97,-46.5 97,-0.5 0,-0.5"/>
<text text-anchor="middle" x="48.5" y="-31.3" font-family="Times,serif" font-size="14.00">Adj. Matrix</text>
<polyline fill="none" stroke="black" points="0,-23.5 97,-23.5 "/>
<text text-anchor="middle" x="48.5" y="-8.3" font-family="Times,serif" font-size="14.00">InputLayer</text>
</g>
<!-- 140322838906480&#45;&gt;140322488833360 -->
<g id="edge2" class="edge">
<title>140322838906480&#45;&gt;140322488833360</title>
<path fill="none" stroke="black" d="M97.35,-42.86C105.84,-46.3 114.74,-49.9 123.4,-53.4"/>
<polygon fill="black" stroke="black" points="122.08,-56.65 132.67,-57.16 124.71,-50.16 122.08,-56.65"/>
</g>
<!-- 140322488474832 -->
<g id="node4" class="node">
<title>140322488474832</title>
<polygon fill="none" stroke="black" points="261,-26.5 261,-72.5 353,-72.5 353,-26.5 261,-26.5"/>
<text text-anchor="middle" x="307" y="-57.3" font-family="Times,serif" font-size="14.00">model_4</text>
<polyline fill="none" stroke="black" points="261,-49.5 353,-49.5 "/>
<text text-anchor="middle" x="307" y="-34.3" font-family="Times,serif" font-size="14.00">Functional</text>
</g>
<!-- 140322838906480&#45;&gt;140322488474832 -->
<g id="edge4" class="edge">
<title>140322838906480&#45;&gt;140322488474832</title>
<path fill="none" stroke="black" d="M97.14,-28.33C140.65,-32.74 204.97,-39.26 250.72,-43.9"/>
<polygon fill="black" stroke="black" points="250.46,-47.39 260.76,-44.91 251.17,-40.42 250.46,-47.39"/>
</g>
<!-- 140322488833360&#45;&gt;140322488474832 -->
<g id="edge3" class="edge">
<title>140322488833360&#45;&gt;140322488474832</title>
<path fill="none" stroke="black" d="M225.13,-66.19C233.46,-64.47 242.23,-62.66 250.81,-60.89"/>
<polygon fill="black" stroke="black" points="251.67,-64.28 260.76,-58.84 250.26,-57.43 251.67,-64.28"/>
</g>
</g>
</svg>
