<?xml version="1.0" encoding="UTF-8" standalone="no"?>
<!DOCTYPE svg PUBLIC "-//W3C//DTD SVG 1.1//EN"
 "http://www.w3.org/Graphics/SVG/1.1/DTD/svg11.dtd">
<!-- Generated by graphviz version 2.43.0 (0)
 -->
<!-- Title: G Pages: 1 -->
<svg width="612pt" height="120pt"
 viewBox="0.00 0.00 612.00 120.00" xmlns="http://www.w3.org/2000/svg" xmlns:xlink="http://www.w3.org/1999/xlink">
<g id="graph0" class="graph" transform="scale(1 1) rotate(0) translate(4 116)">
<title>G</title>
<polygon fill="white" stroke="transparent" points="-4,4 -4,-116 608,-116 608,4 -4,4"/>
<!-- 140321874356064 -->
<g id="node1" class="node">
<title>140321874356064</title>
<polygon fill="none" stroke="black" points="0,-65.5 0,-111.5 155,-111.5 155,-65.5 0,-65.5"/>
<text text-anchor="middle" x="77.5" y="-96.3" font-family="Times,serif" font-size="14.00">feature_embedding</text>
<polyline fill="none" stroke="black" points="0,-88.5 155,-88.5 "/>
<text text-anchor="middle" x="77.5" y="-73.3" font-family="Times,serif" font-size="14.00">InputLayer</text>
</g>
<!-- 140321874323296 -->
<g id="node3" class="node">
<title>140321874323296</title>
<polygon fill="none" stroke="black" points="191,-52.5 191,-98.5 300,-98.5 300,-52.5 191,-52.5"/>
<text text-anchor="middle" x="245.5" y="-83.3" font-family="Times,serif" font-size="14.00">gcn_25x128</text>
<polyline fill="none" stroke="black" points="191,-75.5 300,-75.5 "/>
<text text-anchor="middle" x="245.5" y="-60.3" font-family="Times,serif" font-size="14.00">GeneralConv</text>
</g>
<!-- 140321874356064&#45;&gt;140321874323296 -->
<g id="edge1" class="edge">
<title>140321874356064&#45;&gt;140321874323296</title>
<path fill="none" stroke="black" d="M155.18,-82.49C163.76,-81.82 172.43,-81.14 180.81,-80.49"/>
<polygon fill="black" stroke="black" points="181.19,-83.97 190.88,-79.7 180.64,-76.99 181.19,-83.97"/>
</g>
<!-- 140321874357312 -->
<g id="node2" class="node">
<title>140321874357312</title>
<polygon fill="none" stroke="black" points="30,-0.5 30,-46.5 125,-46.5 125,-0.5 30,-0.5"/>
<text text-anchor="middle" x="77.5" y="-31.3" font-family="Times,serif" font-size="14.00">adj_matrix</text>
<polyline fill="none" stroke="black" points="30,-23.5 125,-23.5 "/>
<text text-anchor="middle" x="77.5" y="-8.3" font-family="Times,serif" font-size="14.00">InputLayer</text>
</g>
<!-- 140321874357312&#45;&gt;140321874323296 -->
<g id="edge2" class="edge">
<title>140321874357312&#45;&gt;140321874323296</title>
<path fill="none" stroke="black" d="M125.18,-38.12C142.58,-43.57 162.62,-49.85 181.25,-55.69"/>
<polygon fill="black" stroke="black" points="180.26,-59.04 190.85,-58.69 182.35,-52.36 180.26,-59.04"/>
</g>
<!-- 140321874322768 -->
<g id="node4" class="node">
<title>140321874322768</title>
<polygon fill="none" stroke="black" points="336,-26.5 336,-72.5 479,-72.5 479,-26.5 336,-26.5"/>
<text text-anchor="middle" x="407.5" y="-57.3" font-family="Times,serif" font-size="14.00">proxy_input_25x4</text>
<polyline fill="none" stroke="black" points="336,-49.5 479,-49.5 "/>
<text text-anchor="middle" x="407.5" y="-34.3" font-family="Times,serif" font-size="14.00">GeneralConv</text>
</g>
<!-- 140321874357312&#45;&gt;140321874322768 -->
<g id="edge4" class="edge">
<title>140321874357312&#45;&gt;140321874322768</title>
<path fill="none" stroke="black" d="M125.15,-27.2C177.25,-31.33 262.54,-38.09 325.58,-43.09"/>
<polygon fill="black" stroke="black" points="325.65,-46.6 335.89,-43.9 326.2,-39.62 325.65,-46.6"/>
</g>
<!-- 140321874323296&#45;&gt;140321874322768 -->
<g id="edge3" class="edge">
<title>140321874323296&#45;&gt;140321874322768</title>
<path fill="none" stroke="black" d="M300.22,-66.77C308.44,-65.43 317.08,-64.03 325.73,-62.62"/>
<polygon fill="black" stroke="black" points="326.56,-66.04 335.87,-60.98 325.44,-59.13 326.56,-66.04"/>
</g>
<!-- 140321874477936 -->
<g id="node5" class="node">
<title>140321874477936</title>
<polygon fill="none" stroke="black" points="515,-26.5 515,-72.5 604,-72.5 604,-26.5 515,-26.5"/>
<text text-anchor="middle" x="559.5" y="-57.3" font-family="Times,serif" font-size="14.00">Sigmoid</text>
<polyline fill="none" stroke="black" points="515,-49.5 604,-49.5 "/>
<text text-anchor="middle" x="559.5" y="-34.3" font-family="Times,serif" font-size="14.00">Activation</text>
</g>
<!-- 140321874322768&#45;&gt;140321874477936 -->
<g id="edge5" class="edge">
<title>140321874322768&#45;&gt;140321874477936</title>
<path fill="none" stroke="black" d="M479.11,-49.5C487.66,-49.5 496.28,-49.5 504.54,-49.5"/>
<polygon fill="black" stroke="black" points="504.76,-53 514.76,-49.5 504.76,-46 504.76,-53"/>
</g>
</g>
</svg>
